<svg width="50" height="50" viewBox="0 0 50 50" fill="none" xmlns="http://www.w3.org/2000/svg">
<circle cx="25" cy="25" r="25" fill="black"/>
<path d="M24.9998 24.9998C23.1665 24.9998 21.5971 24.3471 20.2915 23.0415C18.9859 21.7359 18.3332 20.1665 18.3332 18.3332C18.3332 16.4998 18.9859 14.9304 20.2915 13.6248C21.5971 12.3193 23.1665 11.6665 24.9998 11.6665C26.8332 11.6665 28.4026 12.3193 29.7082 13.6248C31.0137 14.9304 31.6665 16.4998 31.6665 18.3332C31.6665 20.1665 31.0137 21.7359 29.7082 23.0415C28.4026 24.3471 26.8332 24.9998 24.9998 24.9998ZM11.6665 38.3332V33.6665C11.6665 32.7221 11.9096 31.854 12.3957 31.0623C12.8818 30.2707 13.5276 29.6665 14.3332 29.2498C16.0554 28.3887 17.8054 27.7429 19.5832 27.3123C21.3609 26.8818 23.1665 26.6665 24.9998 26.6665C26.8332 26.6665 28.6387 26.8818 30.4165 27.3123C32.1943 27.7429 33.9443 28.3887 35.6665 29.2498C36.4721 29.6665 37.1179 30.2707 37.604 31.0623C38.0901 31.854 38.3332 32.7221 38.3332 33.6665V38.3332H11.6665ZM14.9998 34.9998H34.9998V33.6665C34.9998 33.3609 34.9234 33.0832 34.7707 32.8332C34.6179 32.5832 34.4165 32.3887 34.1665 32.2498C32.6665 31.4998 31.1526 30.9373 29.6248 30.5623C28.0971 30.1873 26.5554 29.9998 24.9998 29.9998C23.4443 29.9998 21.9026 30.1873 20.3748 30.5623C18.8471 30.9373 17.3332 31.4998 15.8332 32.2498C15.5832 32.3887 15.3818 32.5832 15.229 32.8332C15.0762 33.0832 14.9998 33.3609 14.9998 33.6665V34.9998ZM24.9998 21.6665C25.9165 21.6665 26.7012 21.3401 27.354 20.6873C28.0068 20.0346 28.3332 19.2498 28.3332 18.3332C28.3332 17.4165 28.0068 16.6318 27.354 15.979C26.7012 15.3262 25.9165 14.9998 24.9998 14.9998C24.0832 14.9998 23.2984 15.3262 22.6457 15.979C21.9929 16.6318 21.6665 17.4165 21.6665 18.3332C21.6665 19.2498 21.9929 20.0346 22.6457 20.6873C23.2984 21.3401 24.0832 21.6665 24.9998 21.6665Z" fill="#FFFAEB"/>
</svg>
