<svg width="80" height="80" viewBox="0 0 80 80" fill="none" xmlns="http://www.w3.org/2000/svg">
<circle cx="40" cy="40" r="40" fill="#FC0404"/>
<path d="M37.0608 47.392L36.9168 45.28C36.8208 43.84 36.8688 42.624 37.0608 41.632C37.2528 40.624 37.6528 39.744 38.2608 38.992C38.8688 38.224 39.7488 37.472 40.9008 36.736L41.7168 36.208C42.0528 35.984 42.3008 35.672 42.4608 35.272C42.6368 34.856 42.7488 34.392 42.7968 33.88C42.8448 33.352 42.8688 32.816 42.8688 32.272V27.328C42.8688 26.56 42.6128 25.968 42.1008 25.552C41.5888 25.136 40.8528 24.928 39.8928 24.928C39.0128 24.928 38.3248 25.136 37.8288 25.552C37.3328 25.968 37.0608 26.56 37.0128 27.328C36.9488 28.544 36.9088 29.704 36.8928 30.808C36.8928 31.896 36.9168 32.944 36.9648 33.952H30.0048C29.9888 33.504 29.9728 33.008 29.9568 32.464C29.9408 31.904 29.9248 31.312 29.9088 30.688C29.9088 30.048 29.9248 29.376 29.9568 28.672C30.1008 25.232 30.9328 22.776 32.4528 21.304C33.9728 19.816 36.4368 19.072 39.8448 19.072C43.4928 19.072 46.1088 19.816 47.6928 21.304C49.2768 22.776 50.0688 25.232 50.0688 28.672C50.0688 29.072 50.0688 29.464 50.0688 29.848C50.0688 30.216 50.0688 30.6 50.0688 31C50.0688 31.384 50.0688 31.808 50.0688 32.272C50.0688 34.064 49.9008 35.504 49.5648 36.592C49.2448 37.664 48.8368 38.496 48.3408 39.088C47.8448 39.68 47.3328 40.128 46.8048 40.432C46.2768 40.72 45.8128 40.976 45.4128 41.2L44.2608 41.824C43.5888 42.176 43.1808 42.672 43.0368 43.312C42.9088 43.952 42.8048 44.608 42.7248 45.28L42.5328 47.392H37.0608ZM35.7648 58V51.328H43.9248V58H35.7648Z" fill="#FFFAEB"/>
</svg>
